<?xml version="1.0" encoding="utf-8"?>
<!-- Svg Vector Icons : http://www.onlinewebfonts.com/icon -->
<!DOCTYPE svg PUBLIC "-//W3C//DTD SVG 1.1//EN" "http://www.w3.org/Graphics/SVG/1.1/DTD/svg11.dtd">
<svg version="1.1" xmlns="http://www.w3.org/2000/svg" xmlns:xlink="http://www.w3.org/1999/xlink" x="0px" y="0px" viewBox="0 0 256 256" enable-background="new 0 0 256 256" xml:space="preserve">
<metadata> Svg Vector Icons : http://www.onlinewebfonts.com/icon </metadata>
<g> <path fill="#000000" d="M64.7,167.4c-4.7,0-9.4-1.1-13.8-3.4c-8.4-4.3-15-12.3-18.1-21.9c-5.9-18.6,2.7-38.2,19.3-43.6 c7.4-2.5,15.5-1.7,22.8,2c8.4,4.3,15,12.3,18.1,21.9c5.9,18.6-2.7,38.2-19.3,43.6C70.7,166.9,67.7,167.4,64.7,167.4z M61,105.1 c-2.2,0-4.3,0.3-6.4,1c-12.4,4.1-18.7,19.1-14.1,33.5c2.4,7.6,7.5,13.8,14,17.1c5.3,2.7,11.2,3.2,16.6,1.5 c12.4-4.1,18.7-19.1,14.1-33.5c-2.4-7.6-7.5-13.8-14-17.1C67.9,106,64.5,105.1,61,105.1L61,105.1z"/> <path fill="#000000" d="M190.6,216.5c-0.9,0-1.7-0.3-2.5-0.8c-4.6-3.5-9.3-7.3-13.7-10.9c-24.1-19.5-46.8-38-72.7-25.2 c-30.3,14.9-47.8,9.7-48.5,9.5c-18.3-5-33.7-20.5-40.1-40.5c-9.8-31,4.4-63.5,31.8-72.6c0,0,0.1,0,0.1,0c2-0.7,4-1.2,6-1.6 c13-3.3,44-11.2,52-13c14.4-3.1,31.1-4.6,46.3,8.2c11.6,9.8,92.1,86.7,95.5,90c1.3,1.3,1.6,3.3,0.7,5c-0.5,0.8-11.6,19.6-40.7,22.5 c-1.3,3.2-4.5,11-10.3,26.7c-0.4,1.2-1.4,2.1-2.7,2.5C191.4,216.4,191,216.5,190.6,216.5z M119.2,167.2c21.7,0,41.3,15.8,60.4,31.3 c3,2.5,6.1,5,9.2,7.4c4.4-11.8,7-18.2,8.3-21.3L89.6,94c-10.8-9.8-24.2-13.9-36.9-11.6c-2.9,0.7-4.8,1.2-5.4,1.4 c-23.1,7.7-35,35.7-26.5,62.4c5.5,17.4,18.8,30.8,34.6,35.1c0.3,0.1,15.6,4.4,42.7-9C105.4,168.7,112.4,167.2,119.2,167.2z  M76,76.5c6.7,2.4,13.2,6.2,19,11.4l108.3,91.2c19.4-1.7,29.5-11.3,33.3-16c-14.1-13.4-82.3-78.6-92.6-87.2 c-12.4-10.5-26.2-9.4-39.3-6.5C100.3,70.4,88,73.4,76,76.5z"/> <path fill="#000000" d="M190.6,216.5c-1.9,0-3.5-1.3-4-3.2c-0.5-2.2,0.9-4.3,3.1-4.8c28.2-6.2,35.3-33.5,35.6-34.7 c0.6-2.2,2.7-3.5,4.9-3s3.5,2.7,3,4.9c-0.3,1.4-8.6,33.3-41.8,40.6C191.2,216.4,190.9,216.5,190.6,216.5L190.6,216.5z M27.1,96.6 c-0.8,0-1.6-0.2-2.3-0.7c-1.8-1.3-2.3-3.8-1-5.6c3.7-5.4,7.2-10.4,2.1-20.6C21.4,60.7,25,50.5,35,44.2c11.4-7.2,28.7-7.1,39.9,7.1 C85.7,65.2,96.6,63,97.1,62.9c2.2-0.5,4.3,0.9,4.9,3c0.5,2.2-0.8,4.3-2.9,4.9c-0.7,0.2-16.3,3.8-30.6-14.4 C59.9,45.5,47.4,46,39.3,51.1c-4.8,3-9.3,8.8-6.2,14.9c7.3,14.5,1.3,23.2-2.7,28.9C29.6,96,28.4,96.6,27.1,96.6L27.1,96.6z  M127.1,105.5c-1.6,0-3-0.9-3.7-2.4c-0.9-2,0-4.4,2-5.4l21.1-9.5c2-0.9,4.4,0,5.3,2c0.9,2,0,4.4-2,5.4l-21.1,9.5 C128.2,105.3,127.6,105.5,127.1,105.5z M143.2,121.1c-1.5,0-2.9-0.8-3.6-2.2c-1-2-0.2-4.4,1.8-5.5l19.5-9.9c2-1,4.4-0.2,5.5,1.8 c1,2,0.2,4.4-1.8,5.5l-19.5,9.9C144.5,120.9,143.8,121.1,143.2,121.1z"/></g>
</svg>